<mxfile host="Electron" agent="Mozilla/5.0 (Macintosh; Intel Mac OS X 10_15_7) AppleWebKit/537.36 (KHTML, like Gecko) draw.io/26.0.16 Chrome/132.0.6834.196 Electron/34.2.0 Safari/537.36" version="26.0.16">
  <diagram id="Q3GNcz5Up6qMRmDOuyYF" name="Page-1">
    <mxGraphModel dx="3062" dy="1238" grid="1" gridSize="10" guides="1" tooltips="1" connect="1" arrows="1" fold="1" page="1" pageScale="1" pageWidth="827" pageHeight="1169" math="0" shadow="0">
      <root>
        <mxCell id="0" />
        <mxCell id="1" parent="0" />
        <mxCell id="OAFZ-fG2_SASksXRo_OF-1" value="" style="group" parent="1" vertex="1" connectable="0">
          <mxGeometry x="-1600" y="30" width="730" height="340" as="geometry" />
        </mxCell>
        <mxCell id="w4ESx3GkHjDiwir0rmVy-1" value="" style="rounded=1;whiteSpace=wrap;html=1;sketch=0;fontFamily=Montserrat;fontSource=https%3A%2F%2Ffonts.googleapis.com%2Fcss%3Ffamily%3DMontserrat;fontSize=20;align=center;strokeWidth=4;glass=0;arcSize=5;strokeColor=none;fillColor=#EBEBE9;container=0;" parent="OAFZ-fG2_SASksXRo_OF-1" vertex="1">
          <mxGeometry width="730" height="340" as="geometry" />
        </mxCell>
        <mxCell id="Yuau4jau81ypFDr4ahmD-1" value="&lt;font&gt;Database Files&lt;/font&gt;" style="rounded=0;whiteSpace=wrap;html=1;shadow=1;sketch=0;glass=0;strokeColor=#808080;fontFamily=Roboto;container=0;" parent="OAFZ-fG2_SASksXRo_OF-1" vertex="1">
          <mxGeometry x="31" y="35" width="120" height="60" as="geometry" />
        </mxCell>
        <mxCell id="Yuau4jau81ypFDr4ahmD-2" value="Log Files" style="rounded=0;whiteSpace=wrap;html=1;shadow=1;sketch=0;glass=0;strokeColor=#808080;fontFamily=Roboto;container=0;" parent="OAFZ-fG2_SASksXRo_OF-1" vertex="1">
          <mxGeometry x="31" y="105" width="120" height="60" as="geometry" />
        </mxCell>
        <mxCell id="Yuau4jau81ypFDr4ahmD-3" value="&lt;font&gt;Static Files&lt;/font&gt;" style="rounded=0;whiteSpace=wrap;html=1;shadow=1;sketch=0;glass=0;strokeColor=#808080;fontFamily=Roboto;container=0;" parent="OAFZ-fG2_SASksXRo_OF-1" vertex="1">
          <mxGeometry x="31" y="175" width="120" height="60" as="geometry" />
        </mxCell>
        <mxCell id="Yuau4jau81ypFDr4ahmD-4" value="&lt;font&gt;Other Files&lt;/font&gt;" style="rounded=0;whiteSpace=wrap;html=1;shadow=1;sketch=0;glass=0;strokeColor=#808080;fontFamily=Roboto;container=0;" parent="OAFZ-fG2_SASksXRo_OF-1" vertex="1">
          <mxGeometry x="31" y="245" width="120" height="60" as="geometry" />
        </mxCell>
        <mxCell id="Yuau4jau81ypFDr4ahmD-11" value="File System" style="rounded=1;whiteSpace=wrap;html=1;shadow=1;sketch=0;glass=0;strokeColor=#808080;strokeWidth=1;fontFamily=Roboto;container=0;" parent="OAFZ-fG2_SASksXRo_OF-1" vertex="1">
          <mxGeometry x="221" y="140" width="100" height="60" as="geometry" />
        </mxCell>
        <mxCell id="Yuau4jau81ypFDr4ahmD-26" value="&lt;font style=&quot;font-size: 12px;&quot; face=&quot;Roboto&quot;&gt;mounted&lt;/font&gt;" style="text;html=1;align=center;verticalAlign=middle;resizable=0;points=[];autosize=1;strokeColor=none;fillColor=none;fontSize=14;rotation=-30;container=0;" parent="OAFZ-fG2_SASksXRo_OF-1" vertex="1">
          <mxGeometry x="590" y="110" width="70" height="30" as="geometry" />
        </mxCell>
        <mxCell id="Yuau4jau81ypFDr4ahmD-53" value="" style="endArrow=block;html=1;strokeWidth=3;endFill=0;fontSize=20;fontColor=#E42313;targetPerimeterSpacing=10;sourcePerimeterSpacing=10;strokeColor=#DA291C;rounded=0;fontFamily=Verdana;entryX=0;entryY=0.5;entryDx=0;entryDy=0;" parent="OAFZ-fG2_SASksXRo_OF-1" edge="1">
          <mxGeometry width="50" height="50" relative="1" as="geometry">
            <mxPoint x="334" y="170" as="sourcePoint" />
            <mxPoint x="365" y="170" as="targetPoint" />
            <Array as="points" />
          </mxGeometry>
        </mxCell>
        <mxCell id="Yuau4jau81ypFDr4ahmD-56" value="" style="endArrow=block;html=1;strokeWidth=3;endFill=0;fontSize=20;fontColor=#E42313;targetPerimeterSpacing=10;sourcePerimeterSpacing=10;strokeColor=#DA291C;rounded=0;fontFamily=Verdana;" parent="OAFZ-fG2_SASksXRo_OF-1" edge="1" target="77Hx4Jq-JxmCbu9S4Fiz-2" source="Yuau4jau81ypFDr4ahmD-34">
          <mxGeometry width="50" height="50" relative="1" as="geometry">
            <mxPoint x="569" y="130" as="sourcePoint" />
            <mxPoint x="630" y="90" as="targetPoint" />
            <Array as="points" />
          </mxGeometry>
        </mxCell>
        <mxCell id="Yuau4jau81ypFDr4ahmD-58" value="" style="endArrow=block;html=1;strokeWidth=3;endFill=0;fontSize=20;fontColor=#E42313;targetPerimeterSpacing=10;sourcePerimeterSpacing=10;strokeColor=#DA291C;rounded=0;fontFamily=Verdana;entryX=0;entryY=0.5;entryDx=0;entryDy=0;" parent="OAFZ-fG2_SASksXRo_OF-1" edge="1">
          <mxGeometry width="50" height="50" relative="1" as="geometry">
            <mxPoint x="170" y="169.67" as="sourcePoint" />
            <mxPoint x="201" y="169.67" as="targetPoint" />
            <Array as="points" />
          </mxGeometry>
        </mxCell>
        <mxCell id="Yuau4jau81ypFDr4ahmD-34" value="" style="rounded=1;whiteSpace=wrap;html=1;strokeWidth=2;strokeColor=#7C7C7B;gradientDirection=south;arcSize=50;imageHeight=24;perimeterSpacing=10;container=0;" parent="OAFZ-fG2_SASksXRo_OF-1" vertex="1">
          <mxGeometry x="381" y="130" width="200" height="80" as="geometry" />
        </mxCell>
        <mxCell id="Yuau4jau81ypFDr4ahmD-36" value="&lt;font face=&quot;Roboto&quot; style=&quot;font-size: 15px;&quot;&gt;Block Storage&lt;/font&gt;" style="text;strokeColor=none;fillColor=none;align=center;verticalAlign=middle;rounded=0;sketch=0;fontFamily=Montserrat;fontSource=https%3A%2F%2Ffonts.googleapis.com%2Fcss%3Ffamily%3DMontserrat;fontStyle=1;fontSize=24;spacing=0;html=1;container=0;" parent="OAFZ-fG2_SASksXRo_OF-1" vertex="1">
          <mxGeometry x="461" y="144" width="110" height="26" as="geometry" />
        </mxCell>
        <mxCell id="Yuau4jau81ypFDr4ahmD-37" value="&lt;font face=&quot;Roboto&quot; color=&quot;#da291c&quot;&gt;&lt;span style=&quot;font-size: 18px;&quot;&gt;Volume&lt;/span&gt;&lt;/font&gt;" style="text;strokeColor=none;fillColor=none;align=center;verticalAlign=middle;rounded=0;sketch=0;fontFamily=Abel;fontSource=https%3A%2F%2Ffonts.googleapis.com%2Fcss%3Ffamily%3DAbel;fontStyle=1;fontSize=16;spacing=0;html=1;container=0;" parent="OAFZ-fG2_SASksXRo_OF-1" vertex="1">
          <mxGeometry x="461" y="173" width="110" height="21" as="geometry" />
        </mxCell>
        <mxCell id="Yuau4jau81ypFDr4ahmD-38" value="" style="endArrow=none;html=1;fontSize=20;fontColor=#E42313;strokeColor=#E42313;align=center;rounded=0;" parent="OAFZ-fG2_SASksXRo_OF-1" edge="1">
          <mxGeometry x="-459" y="180" width="50" height="50" as="geometry">
            <mxPoint x="461" y="169.75" as="sourcePoint" />
            <mxPoint x="571" y="169.75" as="targetPoint" />
          </mxGeometry>
        </mxCell>
        <mxCell id="77Hx4Jq-JxmCbu9S4Fiz-1" value="" style="shape=image;verticalLabelPosition=bottom;labelBackgroundColor=default;verticalAlign=top;aspect=fixed;imageAspect=0;editableCssRules=.*;image=data:image/svg+xml,PHN2ZyB4bWxucz0iaHR0cDovL3d3dy53My5vcmcvMjAwMC9zdmciIHZpZXdCb3g9IjAuMDYzMDAwMDAxMDEzMjc4OTYgLTAuMDAyMDAwMDAwMDk0OTk0OTAyNiA2Mi4zNjIwMDMzMjY0MTYwMTYgNjIuMzYxOTk5NTExNzE4NzUiIHdpZHRoPSI2Mi4zNjIwMDMzMjY0MTYwMTYiIGhlaWdodD0iNjIuMzYxOTk5NTExNzE4NzUiPjxwYXRoIHN0eWxlPSJmaWxsOiNkYTI5MWMiIGQ9Ik0zMS4zNzggNjIuMzZDMTMuNTQ1IDYyLjM2LjA2MyA0Ny41OS4wNjMgMzEuMzE1LjA2MyAxMi42MzIgMTUuNjItLjAwMiAzMS4xNDMtLjAwMmMxOC42MDIgMCAzMS4yODIgMTUuMzQgMzEuMjgyIDMwLjk0NyAwIDE5LjA1LTE1LjY1OCAzMS40MTUtMzEuMDQ3IDMxLjQxNSIvPjxwYXRoIHN0eWxlPSJmaWxsOiNmZmYiIGQ9Im00NC45NTcgMTkuNzM4LTExLjkzLTQuNjc3YTQuODMgNC44MyAwIDAgMC0zLjU2OS0uMDAxbC0xMS45MzMgNC42NzgtLjAyOS4wMTJhMy4yOSAzLjI5IDAgMCAwLTIuMDA1IDMuMDk4djE1LjIyN2EzLjMgMy4zIDAgMCAwIDIuMDQgMy4xMzFsMTEuOTMyIDQuNjgxYTQuODggNC44OCAwIDAgMCAzLjU2NiAwbDExLjk2MS00LjY5MmEzLjI4NSAzLjI4NSAwIDAgMCAyLjAwNi0zLjA5OFYyMi44NzFhMy4zMSAzLjMxIDAgMCAwLTIuMDM5LTMuMTMzTTMwLjE5MSAxNi45MmEyLjg0IDIuODQgMCAwIDEgMi4xMDIuMDAybDExLjM3NSA0LjQ1OS0xMi40MjUgNC44MTMtMTIuNDI2LTQuODE0ek0xOC4yODcgMzkuMzU2YTEuMzEgMS4zMSAwIDAgMS0uNzk2LTEuMjU5VjIzLjQyNWwxMi41NiA0Ljg2NXYxNS42OHptMjUuOTQ0LS4wMS0xMS43OTUgNC42MjZWMjguMjlsMTIuNTYtNC44NjZ2MTQuNjk3YTEuMyAxLjMgMCAwIDEtLjc2NCAxLjIyNCIvPjwvc3ZnPg==;" vertex="1" parent="OAFZ-fG2_SASksXRo_OF-1">
          <mxGeometry x="390" y="139" width="62" height="62" as="geometry" />
        </mxCell>
        <mxCell id="77Hx4Jq-JxmCbu9S4Fiz-2" value="" style="shape=image;verticalLabelPosition=bottom;labelBackgroundColor=default;verticalAlign=top;aspect=fixed;imageAspect=0;editableCssRules=.*;image=data:image/svg+xml,PHN2ZyB4bWxucz0iaHR0cDovL3d3dy53My5vcmcvMjAwMC9zdmciIHZpZXdCb3g9IjAgMCA2Mi4zNjE5OTk1MTE3MTg3NSA2Mi4zNjE5OTk1MTE3MTg3NSIgd2lkdGg9IjYyLjM2MTk5OTUxMTcxODc1IiBoZWlnaHQ9IjYyLjM2MTk5OTUxMTcxODc1Ij48cGF0aCBzdHlsZT0iZmlsbDojZGEyOTFjIiBkPSJNMzEuMzE1IDYyLjM2MkMxMy40ODMgNjIuMzYyIDAgNDcuNTkgMCAzMS4zMTUgMCAxMi42MzMgMTUuNTU3IDAgMzEuMDggMGMxOC42MDIgMCAzMS4yODIgMTUuMzQgMzEuMjgyIDMwLjk0NyAwIDE5LjA1LTE1LjY1NyAzMS40MTUtMzEuMDQ3IDMxLjQxNSIvPjxwYXRoIHN0eWxlPSJmaWxsOiNmZmYiIGQ9Ik00Mi4zMjQgNDIuODVIMjAuMDM4YTQuOTc2IDQuOTc2IDAgMCAxLTQuOTctNC45N1YyMS45MDVjMC0yLjc0IDIuMjMtNC45NyA0Ljk3LTQuOTdoMjIuMjg2YzIuNzQgMCA0Ljk3IDIuMjMgNC45NyA0Ljk3VjM3Ljg4YzAgMi43NDEtMi4yMyA0Ljk3LTQuOTcgNC45N00yMC4wMzggMTguOTM1YTIuOTc0IDIuOTc0IDAgMCAwLTIuOTcgMi45N1YzNy44OGEyLjk3NCAyLjk3NCAwIDAgMCAyLjk3IDIuOTdoMjIuMjg2YTIuOTc0IDIuOTc0IDAgMCAwIDIuOTctMi45N1YyMS45MDVhMi45NzMgMi45NzMgMCAwIDAtMi45Ny0yLjk3em0xNi4yNDggMjcuOTFoLTEwLjIxYTEgMSAwIDEgMSAwLTJoMTAuMjFhMSAxIDAgMSAxIDAgMiIvPjwvc3ZnPg==;" vertex="1" parent="OAFZ-fG2_SASksXRo_OF-1">
          <mxGeometry x="642" y="35" width="62" height="62" as="geometry" />
        </mxCell>
        <mxCell id="77Hx4Jq-JxmCbu9S4Fiz-3" value="" style="shape=image;verticalLabelPosition=bottom;labelBackgroundColor=default;verticalAlign=top;aspect=fixed;imageAspect=0;editableCssRules=.*;image=data:image/svg+xml,PHN2ZyB4bWxucz0iaHR0cDovL3d3dy53My5vcmcvMjAwMC9zdmciIHZpZXdCb3g9IjAgMCA2Mi4zNjE5OTk1MTE3MTg3NSA2Mi4zNjE5OTk1MTE3MTg3NSIgd2lkdGg9IjYyLjM2MTk5OTUxMTcxODc1IiBoZWlnaHQ9IjYyLjM2MTk5OTUxMTcxODc1Ij48cGF0aCBzdHlsZT0iZmlsbDojZGEyOTFjIiBkPSJNMzEuMzE1IDYyLjM2MkMxMy40ODMgNjIuMzYyIDAgNDcuNTkgMCAzMS4zMTUgMCAxMi42MzMgMTUuNTU3IDAgMzEuMDggMGMxOC42MDIgMCAzMS4yODIgMTUuMzQgMzEuMjgyIDMwLjk0NyAwIDE5LjA1LTE1LjY1NyAzMS40MTUtMzEuMDQ3IDMxLjQxNSIvPjxwYXRoIHN0eWxlPSJmaWxsOiNmZmYiIGQ9Ik00Mi4zMjQgNDIuODVIMjAuMDM4YTQuOTc2IDQuOTc2IDAgMCAxLTQuOTctNC45N1YyMS45MDVjMC0yLjc0IDIuMjMtNC45NyA0Ljk3LTQuOTdoMjIuMjg2YzIuNzQgMCA0Ljk3IDIuMjMgNC45NyA0Ljk3VjM3Ljg4YzAgMi43NDEtMi4yMyA0Ljk3LTQuOTcgNC45N00yMC4wMzggMTguOTM1YTIuOTc0IDIuOTc0IDAgMCAwLTIuOTcgMi45N1YzNy44OGEyLjk3NCAyLjk3NCAwIDAgMCAyLjk3IDIuOTdoMjIuMjg2YTIuOTc0IDIuOTc0IDAgMCAwIDIuOTctMi45N1YyMS45MDVhMi45NzMgMi45NzMgMCAwIDAtMi45Ny0yLjk3em0xNi4yNDggMjcuOTFoLTEwLjIxYTEgMSAwIDEgMSAwLTJoMTAuMjFhMSAxIDAgMSAxIDAgMiIvPjwvc3ZnPg==;" vertex="1" parent="OAFZ-fG2_SASksXRo_OF-1">
          <mxGeometry x="642" y="243" width="62" height="62" as="geometry" />
        </mxCell>
      </root>
    </mxGraphModel>
  </diagram>
</mxfile>
